<svg xmlns="http://www.w3.org/2000/svg" xmlns:xlink="http://www.w3.org/1999/xlink" width="640" height="640" preserveAspectRatio="xMidYMid meet" version="1.1" viewBox="0 0 640 640"><defs><path id="b5AneWDn5F" d="M218.29 35.5C208.36 44.93 62.06 244.94 47.71 267.77C42.74 276.21 36.67 280.67 205.04 142.7C350.23 23.59 356.3 17.63 352.44 7.7C348.58 -0.73 302.76 -2.72 276.81 4.23C254.18 10.68 230.44 23.09 218.29 35.5Z"/><path id="a12wG3nWWa" d="M447.94 86.62C438.01 102.99 407.09 152.13 380.04 195.8C352.44 239.48 306.62 312.93 277.91 359.59C249.21 405.74 219.95 453.88 212.22 465.8C204.49 477.71 200.63 486.64 203.39 485.65C206.15 484.66 274.05 420.14 354.65 342.22C647.78 58.33 631.22 75.2 629.02 60.31C627.36 48.9 622.94 45.42 597 37.98C561.11 27.06 515.85 23.09 500.39 29.05C484.38 35.5 468.92 52.37 447.94 86.62Z"/><path id="cayKTolOw" d="M1.34 80.16C-3.63 98.53 8.52 187.37 16.8 194.81C23.97 201.26 36.12 194.32 49.92 174.46C107.88 96.05 144.32 41.95 144.32 36.49C144.32 27.06 112.85 28.05 62.62 38.97C16.8 49.39 7.41 55.35 1.34 80.16Z"/><path id="a3aYRHvYSE" d="M202.84 211.69C147.63 256.85 96.29 300.53 88.01 308.47C63.17 333.78 63.17 351.15 89.11 403.76C113.4 452.89 127.21 469.27 141.56 464.31C150.94 461.33 154.81 455.87 242.03 317.4C333.12 171.98 381.7 94.56 397.16 70.24C417.58 37.98 401.57 44.43 349.13 90.09C323.18 111.93 257.49 167.02 202.84 211.69Z"/><path id="dfcjXexAE" d="M218.29 558.11C216.64 565.06 217.74 576.97 221.61 584.41C229.89 601.29 279.57 640 292.82 640C308.83 640 329.81 622.13 347.47 593.84C355.75 579.95 422 475.72 494.32 362.56C566.08 249.9 624.05 156.6 623.49 155.6C622.39 154.61 570.5 203.75 508.67 263.8C287.85 478.7 221.61 545.7 218.29 558.11Z"/><path id="b4jrjE2gWq" d="M418.69 581.93C403.78 605.75 392.74 626.6 394.4 628.09C398.81 632.56 476.65 550.17 512.53 502.52C548.42 455.37 576.57 402.76 616.32 310.45C645.02 243.45 648.34 217.15 622.39 258.84C605.28 287.13 464.51 510.46 418.69 581.93Z"/></defs><g><g><g><use fill="#fff" fill-opacity="1" opacity="1" xlink:href="#b5AneWDn5F"/><g><use fill-opacity="0" stroke="#fff" stroke-opacity="0" stroke-width="1" opacity="1" xlink:href="#b5AneWDn5F"/></g></g><g><use fill="#fff" fill-opacity="1" opacity="1" xlink:href="#a12wG3nWWa"/><g><use fill-opacity="0" stroke="#fff" stroke-opacity="0" stroke-width="1" opacity="1" xlink:href="#a12wG3nWWa"/></g></g><g><use fill="#fff" fill-opacity="1" opacity="1" xlink:href="#cayKTolOw"/><g><use fill-opacity="0" stroke="#fff" stroke-opacity="0" stroke-width="1" opacity="1" xlink:href="#cayKTolOw"/></g></g><g><use fill="#fff" fill-opacity="1" opacity="1" xlink:href="#a3aYRHvYSE"/><g><use fill-opacity="0" stroke="#fff" stroke-opacity="0" stroke-width="1" opacity="1" xlink:href="#a3aYRHvYSE"/></g></g><g><use fill="#fff" fill-opacity="1" opacity="1" xlink:href="#dfcjXexAE"/><g><use fill-opacity="0" stroke="#fff" stroke-opacity="0" stroke-width="1" opacity="1" xlink:href="#dfcjXexAE"/></g></g><g><use fill="#fff" fill-opacity="1" opacity="1" xlink:href="#b4jrjE2gWq"/><g><use fill-opacity="0" stroke="#fff" stroke-opacity="0" stroke-width="1" opacity="1" xlink:href="#b4jrjE2gWq"/></g></g></g></g></svg>