<?xml version="1.0" standalone="no"?>
<!DOCTYPE svg PUBLIC "-//W3C//DTD SVG 20010904//EN"
 "http://www.w3.org/TR/2001/REC-SVG-20010904/DTD/svg10.dtd">
<svg xmlns="http://www.w3.org/2000/svg" version="1.0" width="115.879598pt" height="128.961753pt" viewBox="0 0 115.879598 128.961753" preserveAspectRatio="xMidYMid meet">
<metadata>
Created by potrace 1.12, written by Peter Selinger 2001-2015
</metadata>
<g transform="translate(-15.883922,139.961753) scale(0.100000,-0.100000)" stroke="none">
<path d="M660 1391 c-41 -13 -84 -38 -106 -63 -18 -19 -283 -422 -309 -468 -9 -17 -20 -26 285 252 263 240 274 252 267 272 -7 17 -90 21 -137 7z" class="path-2" style="&#10;    fill: #20ff98;&#10;"/>
<path d="M1065 1341 c-29 -13 -57 -47 -95 -116 -18 -33 -74 -132 -123 -220 -50 -88 -133 -236 -185 -330 -52 -93 -105 -190 -119 -214 -14 -24 -21 -42 -16 -40 5 2 128 132 274 289 531 572 501 538 497 568 -3 23 -11 30 -58 45 -65 22 -147 30 -175 18z" class="path-4" style="fill: #2065ff;"/>
<path d="M272 1321 c-83 -21 -100 -33 -111 -83 -9 -37 13 -216 28 -231 13 -13 35 1 60 41 105 158 171 267 171 278 0 19 -57 17 -148 -5z" class="path-1" style="&#10;    fill: #20ffb7;&#10;"/>
<path d="M791 1218 c-47 -44 -166 -155 -265 -245 -100 -91 -193 -179 -208 -195 -45 -51 -45 -86 2 -192 44 -99 69 -132 95 -122 17 6 24 17 182 296 165 293 253 449 281 498 37 65 8 52 -87 -40z" class="path-3" style="&#10;    fill: #2098ff;&#10;"/>
<path d="M1080 868 c-400 -433 -520 -568 -526 -593 -3 -14 -1 -38 6 -53 15 -34 105 -112 129 -112 29 0 67 36 99 93 15 28 135 238 266 466 130 227 235 415 234 417 -2 2 -96 -97 -208 -218z" class="path-5" style="&#10;    fill: #95ff20;&#10;"/>
<path d="M1286 878 c-31 -57 -286 -507 -369 -651 -27 -48 -47 -90 -44 -93 8 -9 149 157 214 253 65 95 116 201 188 387 52 135 58 188 11 104z" class="path-6"/>
</g>
</svg>